<?xml version="1.0" encoding="UTF-8"?>
<svg id="Layer_1" xmlns="http://www.w3.org/2000/svg" version="1.1" viewBox="0 0 180 180">
  <!-- Generator: Adobe Illustrator 29.8.4, SVG Export Plug-In . SVG Version: 2.1.1 Build 6)  -->
  <defs>
    <style>
      .st0 {
        fill: #fff;
      }

      .st1 {
        fill: #1e9195;
        opacity: .5;
      }
    </style>
  </defs>
  <path class="st1" d="M90,179.5C40.65,179.5.5,139.35.5,90S40.65.5,90,.5s89.5,40.15,89.5,89.5-40.15,89.5-89.5,89.5Z"/>
  <path class="st0" d="M90,1c49.07,0,89,39.93,89,89s-39.93,89-89,89S1,139.07,1,90,40.93,1,90,1M90,0C40.29,0,0,40.29,0,90s40.29,90,90,90,90-40.29,90-90S139.71,0,90,0h0Z"/>
</svg>